<svg version="1.1" id="Layer_1" xmlns="http://www.w3.org/2000/svg" xmlns:xlink="http://www.w3.org/1999/xlink" x="0px" y="0px"
	 width="100%" viewBox="0 0 400 232" enable-background="new 0 0 400 232" xml:space="preserve">
<path fill="#103340" opacity="1.000000" stroke="none" 
	d="
M237.000000,233.000000 
	C158.000031,233.000000 79.500046,233.000000 1.000053,233.000000 
	C1.000035,155.666718 1.000035,78.333427 1.000018,1.000104 
	C134.333252,1.000070 267.666504,1.000070 400.999817,1.000035 
	C400.999878,78.333229 400.999878,155.666458 400.999939,232.999847 
	C346.500000,233.000000 292.000000,233.000000 237.000000,233.000000 
M76.929260,108.080193 
	C78.936325,108.080193 80.943382,108.080193 82.950447,108.080193 
	C82.896194,107.396172 82.841949,106.712151 82.787697,106.028130 
	C80.525963,106.356468 78.264229,106.684807 75.243820,106.866516 
	C74.364922,107.058266 73.486015,107.250023 72.607117,107.441772 
	C72.635864,107.658714 72.664612,107.875648 72.693359,108.092590 
	C73.799545,108.037895 74.905731,107.983192 76.929260,108.080193 
M123.184555,102.175430 
	C110.048256,103.388313 96.911964,104.601196 83.775665,105.814079 
	C83.810890,106.359268 83.846123,106.904457 83.881348,107.449646 
	C84.477875,107.640205 85.074593,107.997719 85.670906,107.997040 
	C103.161278,107.977280 120.654701,108.068756 138.138306,107.700188 
	C140.525620,107.649864 143.607391,105.838150 145.090332,103.876411 
	C150.237396,97.067429 156.985764,95.169289 164.948486,96.113121 
	C167.365936,96.399666 169.737473,97.073418 172.054764,97.554207 
	C172.334656,96.988594 172.607147,96.695145 172.606705,96.402107 
	C172.578110,77.580048 172.609451,58.757221 172.424866,39.936527 
	C172.374298,34.782459 169.402084,32.129303 164.094788,32.058781 
	C154.268066,31.928215 144.438309,32.031216 134.611313,31.913656 
	C130.563065,31.865229 127.469109,33.185627 124.997635,37.305084 
	C124.681679,39.212730 124.099213,41.119217 124.090904,43.028198 
	C124.005371,62.668461 124.012772,82.309135 123.184555,102.175430 
M186.177460,206.299850 
	C208.517349,212.652206 229.787476,209.884933 249.710510,198.156281 
	C277.164764,181.994019 290.788513,157.407089 292.024567,125.914711 
	C313.064758,124.124374 333.636780,123.381134 353.706818,118.490158 
	C352.207794,118.044807 350.748169,118.047638 349.288544,118.044388 
	C320.133820,117.979614 290.979065,117.916618 261.824341,117.846916 
	C255.173630,117.831017 246.648163,125.211906 245.540405,131.967331 
	C240.926117,160.106613 208.182373,173.288940 185.501114,156.138565 
	C175.654984,148.693436 170.223679,135.843140 172.987488,126.176559 
	C173.855499,126.739525 174.678879,127.254242 175.482697,127.797897 
	C182.956055,132.852341 188.265747,131.879089 193.202774,124.441574 
	C195.595856,120.836418 197.870987,117.151756 200.149902,113.472366 
	C202.477493,109.714378 204.744308,105.918747 207.623047,101.175087 
	C210.445023,109.097046 212.815033,115.835602 215.245026,122.552460 
	C219.288986,133.730652 227.047684,135.391556 235.113281,126.726677 
	C238.969467,122.583992 242.760956,118.359283 246.285751,113.935852 
	C250.042847,109.220871 254.653564,107.553841 260.659302,107.638069 
	C285.312927,107.983826 309.971558,107.973145 334.628448,108.075798 
	C336.261566,108.082603 337.895264,107.941185 339.528687,107.868713 
	C339.542236,107.445541 339.555786,107.022369 339.569336,106.599205 
	C323.782990,105.004311 307.996613,103.409416 291.825043,101.775612 
	C291.733765,99.850006 291.582581,98.061539 291.574463,96.272430 
	C291.493744,78.446304 291.462128,60.619926 291.361450,42.793934 
	C291.314514,34.476437 288.852051,32.030220 280.695770,32.002415 
	C272.032501,31.972885 263.369202,31.960831 254.705917,31.957661 
	C247.035202,31.954855 244.581375,34.341236 244.551682,42.082592 
	C244.491669,57.742908 244.118225,73.417259 244.662476,89.058395 
	C244.945679,97.197334 243.502014,103.824272 237.053757,109.321495 
	C233.383362,112.450562 230.594818,116.614037 226.757553,121.068039 
	C224.934555,116.298042 223.498230,112.618561 222.120789,108.917168 
	C220.091965,103.465416 218.555786,97.774765 215.988403,92.592812 
	C212.640411,85.835297 205.098618,85.492081 200.623810,91.475899 
	C199.430740,93.071304 198.379105,94.779816 197.349091,96.488571 
	C192.740723,104.133560 188.163635,111.797409 183.232681,120.026169 
	C181.024460,118.142426 179.442032,116.774254 177.839783,115.429703 
	C174.919510,112.979111 172.228455,110.147079 169.008591,108.185097 
	C162.918213,104.473991 156.851364,105.635117 152.753342,111.410637 
	C149.281204,116.304008 144.908936,117.920708 139.093552,117.888245 
	C116.103836,117.759903 93.112404,117.928040 70.121674,118.005814 
	C68.464516,118.011421 66.807877,118.174110 65.151001,118.263763 
	C65.140114,118.917923 65.129227,119.572090 65.118347,120.226257 
	C84.995750,122.219635 104.873161,124.213020 124.832664,126.214630 
	C127.638412,165.928574 147.211533,193.067581 186.177460,206.299850 
z"/>
<path fill="#FAFAFB" opacity="1.000000" stroke="none" 
	d="
M185.788040,206.193924 
	C147.211533,193.067581 127.638412,165.928574 124.832664,126.214630 
	C104.873161,124.213020 84.995750,122.219635 65.118347,120.226257 
	C65.129227,119.572090 65.140114,118.917923 65.151001,118.263763 
	C66.807877,118.174110 68.464516,118.011421 70.121674,118.005814 
	C93.112404,117.928040 116.103836,117.759903 139.093552,117.888245 
	C144.908936,117.920708 149.281204,116.304008 152.753342,111.410637 
	C156.851364,105.635117 162.918213,104.473991 169.008591,108.185097 
	C172.228455,110.147079 174.919510,112.979111 177.839783,115.429703 
	C179.442032,116.774254 181.024460,118.142426 183.232681,120.026169 
	C188.163635,111.797409 192.740723,104.133560 197.349091,96.488571 
	C198.379105,94.779816 199.430740,93.071304 200.623810,91.475899 
	C205.098618,85.492081 212.640411,85.835297 215.988403,92.592812 
	C218.555786,97.774765 220.091965,103.465416 222.120789,108.917168 
	C223.498230,112.618561 224.934555,116.298042 226.757553,121.068039 
	C230.594818,116.614037 233.383362,112.450562 237.053757,109.321495 
	C243.502014,103.824272 244.945679,97.197334 244.662476,89.058395 
	C244.118225,73.417259 244.491669,57.742908 244.551682,42.082592 
	C244.581375,34.341236 247.035202,31.954855 254.705917,31.957661 
	C263.369202,31.960831 272.032501,31.972885 280.695770,32.002415 
	C288.852051,32.030220 291.314514,34.476437 291.361450,42.793934 
	C291.462128,60.619926 291.493744,78.446304 291.574463,96.272430 
	C291.582581,98.061539 291.733765,99.850006 291.825043,101.775612 
	C307.996613,103.409416 323.782990,105.004311 339.569336,106.599205 
	C339.555786,107.022369 339.542236,107.445541 339.528687,107.868713 
	C337.895264,107.941185 336.261566,108.082603 334.628448,108.075798 
	C309.971558,107.973145 285.312927,107.983826 260.659302,107.638069 
	C254.653564,107.553841 250.042847,109.220871 246.285751,113.935852 
	C242.760956,118.359283 238.969467,122.583992 235.113281,126.726677 
	C227.047684,135.391556 219.288986,133.730652 215.245026,122.552460 
	C212.815033,115.835602 210.445023,109.097046 207.623047,101.175087 
	C204.744308,105.918747 202.477493,109.714378 200.149902,113.472366 
	C197.870987,117.151756 195.595856,120.836418 193.202774,124.441574 
	C188.265747,131.879089 182.956055,132.852341 175.482697,127.797897 
	C174.678879,127.254242 173.855499,126.739525 172.987488,126.176559 
	C170.223679,135.843140 175.654984,148.693436 185.501114,156.138565 
	C208.182373,173.288940 240.926117,160.106613 245.540405,131.967331 
	C246.648163,125.211906 255.173630,117.831017 261.824341,117.846916 
	C290.979065,117.916618 320.133820,117.979614 349.288544,118.044388 
	C350.748169,118.047638 352.207794,118.044807 353.706818,118.490158 
	C333.636780,123.381134 313.064758,124.124374 292.024567,125.914711 
	C290.788513,157.407089 277.164764,181.994019 249.710510,198.156281 
	C229.787476,209.884933 208.517349,212.652206 185.788040,206.193924 
z"/>
<path fill="#F8F9FA" opacity="1.000000" stroke="none" 
	d="
M125.681122,36.972473 
	C127.469109,33.185627 130.563065,31.865229 134.611313,31.913656 
	C144.438309,32.031216 154.268066,31.928215 164.094788,32.058781 
	C169.402084,32.129303 172.374298,34.782459 172.424866,39.936527 
	C172.609451,58.757221 172.578110,77.580048 172.606705,96.402107 
	C172.607147,96.695145 172.334656,96.988594 172.054764,97.554207 
	C169.737473,97.073418 167.365936,96.399666 164.948486,96.113121 
	C156.985764,95.169289 150.237396,97.067429 145.090332,103.876411 
	C143.607391,105.838150 140.525620,107.649864 138.138306,107.700188 
	C120.654701,108.068756 103.161278,107.977280 85.670906,107.997040 
	C85.074593,107.997719 84.477875,107.640205 83.881348,107.449646 
	C83.846123,106.904457 83.810890,106.359268 83.775665,105.814079 
	C96.911964,104.601196 110.048256,103.388313 123.988335,102.036209 
	C125.072838,98.986137 125.583183,96.076378 125.596962,93.164276 
	C125.685593,74.433960 125.665504,55.703133 125.681122,36.972473 
z"/>
<path fill="#22414C" opacity="1.000000" stroke="none" 
	d="
M125.339378,37.138779 
	C125.665504,55.703133 125.685593,74.433960 125.596962,93.164276 
	C125.583183,96.076378 125.072838,98.986137 124.393188,101.923340 
	C124.012772,82.309135 124.005371,62.668461 124.090904,43.028198 
	C124.099213,41.119217 124.681679,39.212730 125.339378,37.138779 
z"/>
<path fill="#F8F9FA" opacity="1.000000" stroke="none" 
	d="
M76.002487,107.013138 
	C78.264229,106.684807 80.525963,106.356468 82.787697,106.028130 
	C82.841949,106.712151 82.896194,107.396172 82.950447,108.080193 
	C80.943382,108.080193 78.936325,108.080193 76.472145,107.775467 
	C76.015030,107.470734 76.002487,107.013138 76.002487,107.013138 
z"/>
<path fill="#DCE2E4" opacity="1.000000" stroke="none" 
	d="
M75.623154,106.939827 
	C76.002487,107.013138 76.015030,107.470734 76.013474,107.699615 
	C74.905731,107.983192 73.799545,108.037895 72.693359,108.092590 
	C72.664612,107.875648 72.635864,107.658714 72.607117,107.441772 
	C73.486015,107.250023 74.364922,107.058266 75.623154,106.939827 
z"/>
</svg>